<?xml version="1.0" encoding="iso-8859-1"?>
<!-- Generator: Adobe Illustrator 19.0.0, SVG Export Plug-In . SVG Version: 6.00 Build 0)  -->
<svg version="1.1" id="Layer_1" xmlns="http://www.w3.org/2000/svg" xmlns:xlink="http://www.w3.org/1999/xlink" x="0px" y="0px"
	 viewBox="0 0 512 512" style="enable-background:new 0 0 512 512;" xml:space="preserve">
<g>
	<g>
		<path d="M456.798,367.063l-6.696-2.169c-37.54-12.138-62.759-46.522-62.759-85.559c0-34.735,19.643-65.799,51.267-81.073
			l10.132-4.893l-5.652-9.735c-2.286-3.936-23.645-38.803-68.691-50.325c-35.621-9.104-75.615-1.1-118.929,23.803
			c-18.813-11.359-79.55-42.968-128.013-10.85c-9.811,5.438-110.35,65.982-57.942,228.745c1.538,3.646,38.065,89.235,81.358,121.363
			c11.792,11.237,41.853,25.269,76.18,1.914c5.942-2.413,45.244-17.276,69.709,0.112c9.323,6.38,25.6,13.605,42.805,13.605
			c13.06,0,26.665-4.17,38.161-16.028c5.443-4.715,53.849-47.998,79.027-116.475l0.774-2.103L456.798,367.063z M363.805,480.437
			L363,481.196c-21.059,22.123-53.136,0.881-54.302,0.097c-12.912-9.18-27.861-12.169-41.873-12.169
			c-25.372,0-47.652,9.812-49.078,10.453l-1.701,0.962c-29.053,20.305-48.93,2.51-51.038,0.484l-1.227-1.054
			c-38.89-28.36-74.692-112.214-74.734-112.214c-48.782-151.633,44.531-201.23,48.492-203.246l1.146-0.672
			c45.076-30.249,110.004,13.64,110.661,14.093l5.555,3.814l5.754-3.478c40.524-24.49,77.057-32.83,108.578-24.75
			c25.168,6.436,41.395,21.996,49.551,31.884c-32.54,20.234-52.296,55.223-52.296,93.935c0,44.587,26.639,84.23,67.29,101.684
			C408.728,441.726,364.273,480.04,363.805,480.437z"/>
	</g>
</g>
<g>
	<g>
		<path d="M361.163,10.998L360.582,0l-10.947,1.181c-1.007,0.107-100.793,12.133-107.626,123.614l-0.728,11.843l11.843-0.805
			C254.265,135.757,367.283,126.735,361.163,10.998z M264.163,113.064c9.236-63.029,54.649-82.855,76.297-88.782
			C338.184,89.113,288.144,107.82,264.163,113.064z"/>
	</g>
</g>
<g>
</g>
<g>
</g>
<g>
</g>
<g>
</g>
<g>
</g>
<g>
</g>
<g>
</g>
<g>
</g>
<g>
</g>
<g>
</g>
<g>
</g>
<g>
</g>
<g>
</g>
<g>
</g>
<g>
</g>
</svg>
